<svg width="262" height="46" viewBox="0 0 262 46" fill="none" xmlns="http://www.w3.org/2000/svg">
<path d="M31.248 10.96C31.248 13 30.528 14.764 29.088 16.252C27.648 17.716 25.548 18.772 22.788 19.42C24.276 19.828 25.404 20.5 26.172 21.436C26.94 22.348 27.324 23.404 27.324 24.604C27.324 26.5 26.724 28.144 25.524 29.536C24.348 30.928 22.62 32.008 20.34 32.776C18.06 33.52 15.312 33.892 12.096 33.892C10.896 33.892 9.936 33.856 9.216 33.784C9.192 34.456 8.904 34.96 8.352 35.296C7.8 35.632 7.092 35.8 6.228 35.8C5.364 35.8 4.764 35.608 4.428 35.224C4.116 34.84 3.984 34.276 4.032 33.532C4.248 30.172 4.668 26.656 5.292 22.984C5.916 19.288 6.708 15.724 7.668 12.292C7.836 11.692 8.172 11.272 8.676 11.032C9.18 10.792 9.84 10.672 10.656 10.672C12.12 10.672 12.852 11.08 12.852 11.896C12.852 12.232 12.78 12.616 12.636 13.048C12.012 14.92 11.388 17.464 10.764 20.68C10.14 23.872 9.696 26.92 9.432 29.824C10.584 29.92 11.52 29.968 12.24 29.968C15.6 29.968 18.06 29.488 19.62 28.528C21.204 27.544 21.996 26.296 21.996 24.784C21.996 23.728 21.54 22.84 20.628 22.12C19.74 21.4 18.24 21.004 16.128 20.932C15.648 20.908 15.312 20.788 15.12 20.572C14.928 20.356 14.832 20.008 14.832 19.528C14.832 18.832 14.976 18.268 15.264 17.836C15.552 17.404 16.08 17.176 16.848 17.152C18.552 17.104 20.088 16.852 21.456 16.396C22.848 15.94 23.94 15.304 24.732 14.488C25.524 13.648 25.92 12.676 25.92 11.572C25.92 10.18 25.236 9.088 23.868 8.296C22.5 7.48 20.4 7.072 17.568 7.072C15 7.072 12.516 7.408 10.116 8.08C7.716 8.728 5.676 9.556 3.996 10.564C3.228 11.02 2.58 11.248 2.052 11.248C1.62 11.248 1.284 11.104 1.044 10.816C0.828 10.504 0.72 10.12 0.72 9.664C0.72 9.064 0.84 8.548 1.08 8.116C1.344 7.684 1.956 7.192 2.916 6.64C4.932 5.488 7.296 4.588 10.008 3.94C12.72 3.292 15.492 2.968 18.324 2.968C22.668 2.968 25.908 3.7 28.044 5.164C30.18 6.628 31.248 8.56 31.248 10.96ZM48.0957 25.972C48.4077 25.972 48.6477 26.116 48.8157 26.404C49.0077 26.692 49.1037 27.088 49.1037 27.592C49.1037 28.552 48.8757 29.296 48.4197 29.824C47.5317 30.904 46.2717 31.9 44.6397 32.812C43.0317 33.724 41.3037 34.18 39.4557 34.18C36.9357 34.18 34.9797 33.496 33.5877 32.128C32.1957 30.76 31.4997 28.888 31.4997 26.512C31.4997 24.856 31.8477 23.32 32.5437 21.904C33.2397 20.464 34.1997 19.324 35.4237 18.484C36.6717 17.644 38.0757 17.224 39.6357 17.224C41.0277 17.224 42.1437 17.644 42.9837 18.484C43.8237 19.3 44.2437 20.416 44.2437 21.832C44.2437 23.488 43.6437 24.916 42.4437 26.116C41.2677 27.292 39.2637 28.228 36.4317 28.924C37.0317 30.028 38.1717 30.58 39.8517 30.58C40.9317 30.58 42.1557 30.208 43.5237 29.464C44.9157 28.696 46.1157 27.7 47.1237 26.476C47.4117 26.14 47.7357 25.972 48.0957 25.972ZM39.0237 20.752C38.1357 20.752 37.3797 21.268 36.7557 22.3C36.1557 23.332 35.8557 24.58 35.8557 26.044V26.116C37.2717 25.78 38.3877 25.276 39.2037 24.604C40.0197 23.932 40.4277 23.152 40.4277 22.264C40.4277 21.808 40.2957 21.448 40.0317 21.184C39.7917 20.896 39.4557 20.752 39.0237 20.752ZM52.2247 34.18C50.7367 34.18 49.5487 33.64 48.6607 32.56C47.7727 31.48 47.3287 30.064 47.3287 28.312C47.3287 26.392 47.7727 24.58 48.6607 22.876C49.5487 21.148 50.7247 19.768 52.1887 18.736C53.6767 17.68 55.2487 17.152 56.9047 17.152C57.4327 17.152 57.7807 17.26 57.9487 17.476C58.1407 17.668 58.2967 18.028 58.4167 18.556C58.9207 18.46 59.4487 18.412 60.0007 18.412C61.1767 18.412 61.7647 18.832 61.7647 19.672C61.7647 20.176 61.5847 21.376 61.2247 23.272C60.6727 26.032 60.3967 27.952 60.3967 29.032C60.3967 29.392 60.4807 29.68 60.6487 29.896C60.8407 30.112 61.0807 30.22 61.3687 30.22C61.8247 30.22 62.3767 29.932 63.0247 29.356C63.6727 28.756 64.5487 27.796 65.6527 26.476C65.9408 26.14 66.2648 25.972 66.6247 25.972C66.9368 25.972 67.1767 26.116 67.3447 26.404C67.5367 26.692 67.6327 27.088 67.6327 27.592C67.6327 28.552 67.4047 29.296 66.9488 29.824C65.9647 31.048 64.9207 32.08 63.8167 32.92C62.7127 33.76 61.6447 34.18 60.6127 34.18C59.8207 34.18 59.0887 33.916 58.4167 33.388C57.7687 32.836 57.2767 32.092 56.9407 31.156C55.6927 33.172 54.1207 34.18 52.2247 34.18ZM53.5207 30.544C54.0487 30.544 54.5527 30.232 55.0327 29.608C55.5127 28.984 55.8607 28.156 56.0767 27.124L57.4087 20.5C56.4007 20.524 55.4647 20.908 54.6007 21.652C53.7607 22.372 53.0887 23.332 52.5847 24.532C52.0807 25.732 51.8287 27.004 51.8287 28.348C51.8287 29.092 51.9727 29.644 52.2607 30.004C52.5727 30.364 52.9927 30.544 53.5207 30.544ZM70.1789 34.18C69.0989 34.18 68.2109 33.688 67.5149 32.704C66.8429 31.696 66.5069 30.448 66.5069 28.96C66.5069 27.16 66.6269 25.516 66.8669 24.028C67.1069 22.516 67.5029 20.92 68.0549 19.24C68.2949 18.52 68.6309 18.004 69.0629 17.692C69.4949 17.38 70.1789 17.224 71.1149 17.224C71.6429 17.224 72.0029 17.308 72.1949 17.476C72.4109 17.644 72.5189 17.896 72.5189 18.232C72.5189 18.424 72.3869 19.072 72.1229 20.176C71.8829 21.064 71.6909 21.868 71.5469 22.588C71.0669 25.108 70.8269 26.788 70.8269 27.628C70.8269 28.132 70.8869 28.492 71.0069 28.708C71.1269 28.9 71.3189 28.996 71.5829 28.996C71.9429 28.996 72.3869 28.636 72.9149 27.916C73.4669 27.196 74.0429 26.104 74.6429 24.64C75.2669 23.176 75.8669 21.376 76.4429 19.24C76.6349 18.52 76.9229 18.004 77.3069 17.692C77.7149 17.38 78.3149 17.224 79.1069 17.224C79.6589 17.224 80.0429 17.296 80.2589 17.44C80.4749 17.56 80.5829 17.8 80.5829 18.16C80.5829 18.76 80.2829 20.404 79.6829 23.092C79.0109 26.164 78.6749 28.06 78.6749 28.78C78.6749 29.236 78.7709 29.596 78.9629 29.86C79.1549 30.1 79.4069 30.22 79.7189 30.22C80.1989 30.22 80.7629 29.932 81.4109 29.356C82.0829 28.756 82.9709 27.796 84.0749 26.476C84.3629 26.14 84.6869 25.972 85.0469 25.972C85.3589 25.972 85.5989 26.116 85.7669 26.404C85.9589 26.692 86.0549 27.088 86.0549 27.592C86.0549 28.552 85.8269 29.296 85.3709 29.824C84.3389 31.096 83.2229 32.14 82.0229 32.956C80.8469 33.772 79.5029 34.18 77.9909 34.18C76.8389 34.18 75.9869 33.736 75.4349 32.848C74.9069 31.96 74.6429 30.712 74.6429 29.104C74.2349 30.736 73.6229 31.996 72.8069 32.884C71.9909 33.748 71.1149 34.18 70.1789 34.18ZM100.992 25.972C101.304 25.972 101.544 26.116 101.712 26.404C101.904 26.692 102 27.088 102 27.592C102 28.552 101.772 29.296 101.316 29.824C100.284 31.096 99.1558 32.14 97.9318 32.956C96.7078 33.772 95.3038 34.18 93.7198 34.18C88.8238 34.18 86.3758 30.736 86.3758 23.848C86.3758 22.792 86.4118 21.724 86.4838 20.644H85.0798C84.3598 20.644 83.8678 20.512 83.6038 20.248C83.3638 19.984 83.2438 19.564 83.2438 18.988C83.2438 17.644 83.7838 16.972 84.8638 16.972H86.9158C87.3238 14.332 87.9478 11.92 88.7878 9.736C89.6278 7.552 90.6358 5.812 91.8118 4.516C93.0118 3.22 94.2958 2.572 95.6638 2.572C96.6718 2.572 97.4638 3.016 98.0398 3.904C98.6158 4.792 98.9038 5.908 98.9038 7.252C98.9038 10.972 97.3438 14.212 94.2238 16.972H98.2558C98.6398 16.972 98.9158 17.056 99.0838 17.224C99.2518 17.392 99.3358 17.704 99.3358 18.16C99.3358 19.816 97.9798 20.644 95.2678 20.644H90.8758C90.8278 21.844 90.8038 22.78 90.8038 23.452C90.8038 25.948 91.0918 27.7 91.6678 28.708C92.2678 29.716 93.2038 30.22 94.4758 30.22C95.5078 30.22 96.4198 29.908 97.2118 29.284C98.0038 28.66 98.9398 27.724 100.02 26.476C100.308 26.14 100.632 25.972 100.992 25.972ZM94.6918 6.028C94.3318 6.028 93.9238 6.484 93.4678 7.396C93.0358 8.284 92.6158 9.532 92.2078 11.14C91.8238 12.724 91.4998 14.488 91.2358 16.432C92.6518 15.208 93.7078 13.84 94.4038 12.328C95.1238 10.792 95.4838 9.4 95.4838 8.152C95.4838 6.736 95.2198 6.028 94.6918 6.028ZM105.585 14.848C104.577 14.848 103.821 14.62 103.317 14.164C102.813 13.684 102.561 13.024 102.561 12.184C102.561 11.344 102.885 10.648 103.533 10.096C104.205 9.52 105.033 9.232 106.017 9.232C106.905 9.232 107.625 9.448 108.177 9.88C108.729 10.312 109.005 10.924 109.005 11.716C109.005 12.676 108.693 13.444 108.069 14.02C107.445 14.572 106.617 14.848 105.585 14.848ZM105.297 34.18C103.737 34.18 102.597 33.628 101.877 32.524C101.181 31.42 100.833 29.956 100.833 28.132C100.833 27.052 100.965 25.672 101.229 23.992C101.517 22.288 101.877 20.704 102.309 19.24C102.525 18.472 102.813 17.944 103.173 17.656C103.533 17.368 104.109 17.224 104.901 17.224C106.125 17.224 106.737 17.632 106.737 18.448C106.737 19.048 106.509 20.44 106.053 22.624C105.477 25.264 105.189 27.052 105.189 27.988C105.189 28.708 105.285 29.26 105.477 29.644C105.669 30.028 105.993 30.22 106.449 30.22C106.881 30.22 107.421 29.92 108.069 29.32C108.717 28.72 109.581 27.772 110.661 26.476C110.949 26.14 111.273 25.972 111.633 25.972C111.945 25.972 112.185 26.116 112.353 26.404C112.545 26.692 112.641 27.088 112.641 27.592C112.641 28.552 112.413 29.296 111.957 29.824C109.581 32.728 107.361 34.18 105.297 34.18ZM125.54 23.92C126.212 23.92 126.548 24.424 126.548 25.432C126.548 27.328 125.06 28.276 122.084 28.276C121.508 28.276 120.68 28.168 119.6 27.952C119.912 29.44 120.164 31.096 120.356 32.92C120.572 34.72 120.68 36.208 120.68 37.384C120.68 39.976 120.26 41.956 119.42 43.324C118.58 44.692 117.476 45.376 116.108 45.376C114.38 45.376 113.144 44.152 112.4 41.704C111.68 39.256 111.32 35.56 111.32 30.616C111.32 26.008 111.812 21.34 112.796 16.612C113.804 11.86 115.172 7.936 116.9 4.84C118.652 1.72 120.572 0.159998 122.66 0.159998C123.788 0.159998 124.664 0.663998 125.288 1.672C125.936 2.68 126.26 4.036 126.26 5.74C126.26 11.38 122.888 17.524 116.144 24.172C115.904 26.524 115.784 28.588 115.784 30.364C115.784 32.836 115.868 35.368 116.036 37.96C116.204 40.576 116.48 41.884 116.864 41.884C117.584 41.884 117.944 40.636 117.944 38.14C117.944 36.268 117.812 34.456 117.548 32.704C117.308 30.952 116.972 29.104 116.54 27.16C116.516 26.848 116.612 26.452 116.828 25.972C117.068 25.492 117.356 25.072 117.692 24.712C118.028 24.352 118.328 24.172 118.592 24.172C119.072 24.172 119.648 24.196 120.32 24.244C120.536 24.268 120.788 24.28 121.076 24.28C122.036 24.28 123.104 24.196 124.28 24.028C124.472 24.004 124.676 23.98 124.892 23.956C125.108 23.932 125.324 23.92 125.54 23.92ZM121.904 3.724C121.472 3.724 120.932 4.456 120.284 5.92C119.66 7.384 119.036 9.328 118.412 11.752C117.788 14.152 117.248 16.696 116.792 19.384C118.712 17.2 120.188 14.932 121.22 12.58C122.252 10.204 122.78 7.984 122.804 5.92C122.804 4.456 122.504 3.724 121.904 3.724ZM129.305 34.18C128.225 34.18 127.337 33.688 126.641 32.704C125.969 31.696 125.633 30.448 125.633 28.96C125.633 27.16 125.753 25.516 125.993 24.028C126.233 22.516 126.629 20.92 127.181 19.24C127.421 18.52 127.757 18.004 128.189 17.692C128.621 17.38 129.305 17.224 130.241 17.224C130.769 17.224 131.129 17.308 131.321 17.476C131.537 17.644 131.645 17.896 131.645 18.232C131.645 18.424 131.513 19.072 131.249 20.176C131.009 21.064 130.817 21.868 130.673 22.588C130.193 25.108 129.953 26.788 129.953 27.628C129.953 28.132 130.013 28.492 130.133 28.708C130.253 28.9 130.445 28.996 130.709 28.996C131.069 28.996 131.513 28.636 132.041 27.916C132.593 27.196 133.169 26.104 133.769 24.64C134.393 23.176 134.993 21.376 135.569 19.24C135.761 18.52 136.049 18.004 136.433 17.692C136.841 17.38 137.441 17.224 138.233 17.224C138.785 17.224 139.169 17.296 139.385 17.44C139.601 17.56 139.709 17.8 139.709 18.16C139.709 18.76 139.409 20.404 138.809 23.092C138.137 26.164 137.801 28.06 137.801 28.78C137.801 29.236 137.897 29.596 138.089 29.86C138.281 30.1 138.533 30.22 138.845 30.22C139.325 30.22 139.889 29.932 140.537 29.356C141.209 28.756 142.097 27.796 143.201 26.476C143.489 26.14 143.813 25.972 144.173 25.972C144.485 25.972 144.725 26.116 144.893 26.404C145.085 26.692 145.181 27.088 145.181 27.592C145.181 28.552 144.953 29.296 144.497 29.824C143.465 31.096 142.349 32.14 141.149 32.956C139.973 33.772 138.629 34.18 137.117 34.18C135.965 34.18 135.113 33.736 134.561 32.848C134.033 31.96 133.769 30.712 133.769 29.104C133.361 30.736 132.749 31.996 131.933 32.884C131.117 33.748 130.241 34.18 129.305 34.18ZM154.466 28.924C154.73 28.684 154.994 28.564 155.258 28.564C155.546 28.564 155.774 28.732 155.942 29.068C156.134 29.38 156.23 29.764 156.23 30.22C156.23 31.228 155.87 32.032 155.15 32.632C153.902 33.664 152.486 34.18 150.902 34.18C148.622 34.18 146.954 33.232 145.898 31.336C144.842 29.416 144.314 26.92 144.314 23.848C144.314 20.92 144.686 17.584 145.43 13.84C146.198 10.096 147.314 6.88 148.778 4.192C150.266 1.504 152.03 0.159998 154.07 0.159998C155.222 0.159998 156.122 0.699998 156.77 1.78C157.442 2.836 157.778 4.36 157.778 6.352C157.778 9.208 156.986 12.52 155.402 16.288C153.842 20.056 151.706 23.776 148.994 27.448C149.162 28.432 149.462 29.14 149.894 29.572C150.326 30.004 150.914 30.22 151.658 30.22C152.066 30.22 152.522 30.1 153.026 29.86C153.554 29.62 154.034 29.308 154.466 28.924ZM153.278 3.724C152.726 3.724 152.102 4.72 151.406 6.712C150.71 8.704 150.098 11.176 149.57 14.128C149.042 17.08 148.754 19.912 148.706 22.624C150.41 19.816 151.766 17.008 152.774 14.2C153.782 11.368 154.286 8.788 154.286 6.46C154.286 4.636 153.95 3.724 153.278 3.724ZM200.647 4.156C201.319 4.252 201.775 4.456 202.015 4.768C202.279 5.08 202.411 5.488 202.411 5.992C202.411 7.648 201.523 8.416 199.747 8.296L198.487 8.188C197.071 8.068 195.655 7.972 194.239 7.9C192.847 7.828 191.383 7.792 189.847 7.792H188.227C187.939 11.344 187.639 14.584 187.327 17.512L193.519 17.404C194.407 17.404 194.995 17.56 195.283 17.872C195.595 18.184 195.751 18.604 195.751 19.132C195.751 19.948 195.511 20.596 195.031 21.076C194.551 21.532 193.867 21.76 192.979 21.76H186.823L186.607 23.308C186.103 27.268 185.023 30.088 183.367 31.768C181.735 33.448 179.479 34.288 176.599 34.288C174.967 34.288 173.467 33.94 172.099 33.244C170.731 32.524 169.723 31.66 169.075 30.652C168.811 30.244 168.679 29.752 168.679 29.176C168.679 28.6 168.811 28.096 169.075 27.664C169.363 27.232 169.711 27.016 170.119 27.016C170.407 27.016 170.683 27.112 170.947 27.304C171.235 27.496 171.595 27.868 172.027 28.42C173.179 29.932 174.607 30.688 176.311 30.688C177.679 30.688 178.819 30.136 179.731 29.032C180.667 27.904 181.267 26.14 181.531 23.74L181.747 21.76H180.019C179.467 21.76 178.987 21.604 178.579 21.292C178.195 20.98 178.003 20.536 178.003 19.96C178.003 19.216 178.195 18.652 178.579 18.268C178.963 17.86 179.527 17.656 180.271 17.656C180.943 17.656 181.603 17.644 182.251 17.62C182.539 14.98 182.851 11.776 183.187 8.008C180.595 8.248 178.771 8.668 177.715 9.268C176.659 9.868 176.131 10.756 176.131 11.932C176.131 12.748 176.371 13.528 176.851 14.272C176.995 14.488 177.067 14.704 177.067 14.92C177.067 15.352 176.827 15.736 176.347 16.072C175.867 16.384 175.327 16.54 174.727 16.54C174.079 16.54 173.527 16.348 173.071 15.964C172.783 15.724 172.507 15.232 172.243 14.488C171.979 13.744 171.847 12.916 171.847 12.004C171.847 9.028 173.371 6.868 176.419 5.524C179.491 4.18 183.967 3.508 189.847 3.508C193.927 3.508 197.527 3.724 200.647 4.156ZM215.88 22.948C216.192 22.948 216.432 23.104 216.6 23.416C216.768 23.728 216.852 24.124 216.852 24.604C216.852 25.756 216.504 26.44 215.808 26.656C214.368 27.16 212.784 27.448 211.056 27.52C210.6 29.536 209.7 31.156 208.356 32.38C207.012 33.58 205.488 34.18 203.784 34.18C202.344 34.18 201.108 33.832 200.076 33.136C199.068 32.44 198.3 31.516 197.772 30.364C197.244 29.212 196.98 27.964 196.98 26.62C196.98 24.796 197.328 23.176 198.024 21.76C198.72 20.32 199.68 19.204 200.904 18.412C202.128 17.596 203.484 17.188 204.972 17.188C206.796 17.188 208.26 17.824 209.364 19.096C210.492 20.344 211.152 21.892 211.344 23.74C212.472 23.668 213.816 23.428 215.376 23.02C215.568 22.972 215.736 22.948 215.88 22.948ZM204.072 30.364C204.84 30.364 205.5 30.052 206.052 29.428C206.628 28.804 207.012 27.904 207.204 26.728C206.46 26.224 205.884 25.564 205.476 24.748C205.092 23.932 204.9 23.068 204.9 22.156C204.9 21.772 204.936 21.388 205.008 21.004H204.828C203.868 21.004 203.064 21.472 202.416 22.408C201.792 23.32 201.48 24.616 201.48 26.296C201.48 27.616 201.732 28.624 202.236 29.32C202.764 30.016 203.376 30.364 204.072 30.364ZM222.438 34.18C220.086 34.18 218.25 33.52 216.93 32.2C215.634 30.856 214.986 29.092 214.986 26.908C214.986 24.964 215.37 23.26 216.138 21.796C216.906 20.332 217.902 19.204 219.126 18.412C220.35 17.62 221.634 17.224 222.978 17.224C224.298 17.224 225.318 17.62 226.038 18.412C226.782 19.18 227.154 20.176 227.154 21.4C227.154 22.408 226.926 23.26 226.47 23.956C226.038 24.652 225.462 25 224.742 25C224.286 25 223.914 24.892 223.626 24.676C223.362 24.46 223.23 24.16 223.23 23.776C223.23 23.608 223.254 23.416 223.302 23.2C223.35 22.984 223.386 22.828 223.41 22.732C223.53 22.372 223.59 22.036 223.59 21.724C223.59 21.412 223.506 21.172 223.338 21.004C223.194 20.836 222.978 20.752 222.69 20.752C222.138 20.752 221.622 21.004 221.142 21.508C220.662 21.988 220.278 22.648 219.99 23.488C219.702 24.328 219.558 25.252 219.558 26.26C219.558 29.044 220.77 30.436 223.194 30.436C224.178 30.436 225.234 30.112 226.362 29.464C227.514 28.792 228.642 27.796 229.746 26.476C230.034 26.14 230.358 25.972 230.718 25.972C231.03 25.972 231.27 26.116 231.438 26.404C231.63 26.692 231.726 27.088 231.726 27.592C231.726 28.504 231.498 29.248 231.042 29.824C229.914 31.216 228.558 32.296 226.974 33.064C225.414 33.808 223.902 34.18 222.438 34.18ZM234.288 34.18C233.208 34.18 232.32 33.688 231.624 32.704C230.952 31.696 230.616 30.448 230.616 28.96C230.616 27.16 230.736 25.516 230.976 24.028C231.216 22.516 231.612 20.92 232.164 19.24C232.404 18.52 232.74 18.004 233.172 17.692C233.604 17.38 234.288 17.224 235.224 17.224C235.752 17.224 236.112 17.308 236.304 17.476C236.52 17.644 236.628 17.896 236.628 18.232C236.628 18.424 236.496 19.072 236.232 20.176C235.992 21.064 235.8 21.868 235.656 22.588C235.176 25.108 234.936 26.788 234.936 27.628C234.936 28.132 234.996 28.492 235.116 28.708C235.236 28.9 235.428 28.996 235.692 28.996C236.052 28.996 236.496 28.636 237.024 27.916C237.576 27.196 238.152 26.104 238.752 24.64C239.376 23.176 239.976 21.376 240.552 19.24C240.744 18.52 241.032 18.004 241.416 17.692C241.824 17.38 242.424 17.224 243.216 17.224C243.768 17.224 244.152 17.296 244.368 17.44C244.584 17.56 244.692 17.8 244.692 18.16C244.692 18.76 244.392 20.404 243.792 23.092C243.12 26.164 242.784 28.06 242.784 28.78C242.784 29.236 242.88 29.596 243.072 29.86C243.264 30.1 243.516 30.22 243.828 30.22C244.308 30.22 244.872 29.932 245.52 29.356C246.192 28.756 247.08 27.796 248.184 26.476C248.472 26.14 248.796 25.972 249.156 25.972C249.468 25.972 249.708 26.116 249.876 26.404C250.068 26.692 250.164 27.088 250.164 27.592C250.164 28.552 249.936 29.296 249.48 29.824C248.448 31.096 247.332 32.14 246.132 32.956C244.956 33.772 243.612 34.18 242.1 34.18C240.948 34.18 240.096 33.736 239.544 32.848C239.016 31.96 238.752 30.712 238.752 29.104C238.344 30.736 237.732 31.996 236.916 32.884C236.1 33.748 235.224 34.18 234.288 34.18ZM255.741 34.972C254.493 34.972 253.533 34.684 252.861 34.108C252.213 33.532 251.889 32.884 251.889 32.164C251.889 31.54 252.117 31 252.573 30.544C253.029 30.088 253.701 29.86 254.589 29.86C254.901 29.86 255.261 29.896 255.669 29.968C256.101 30.016 256.425 30.052 256.641 30.076C256.617 29.452 256.473 28.864 256.209 28.312C255.969 27.76 255.657 27.232 255.273 26.728C254.889 26.2 254.529 25.744 254.193 25.36C253.449 26.776 252.705 27.952 251.961 28.888C251.241 29.824 250.449 30.712 249.585 31.552C249.153 31.984 248.697 32.2 248.217 32.2C247.833 32.2 247.521 32.068 247.281 31.804C247.041 31.516 246.921 31.168 246.921 30.76C246.921 30.28 247.089 29.836 247.425 29.428L247.893 28.852C249.213 27.22 250.209 25.876 250.881 24.82C251.313 24.124 251.745 23.296 252.177 22.336C252.633 21.376 253.221 20.068 253.941 18.412C254.397 17.356 255.345 16.828 256.785 16.828C257.457 16.828 257.925 16.888 258.189 17.008C258.453 17.128 258.585 17.32 258.585 17.584C258.585 17.728 258.537 17.956 258.441 18.268C258.345 18.58 258.213 18.892 258.045 19.204C257.613 20.068 257.397 20.8 257.397 21.4C257.397 21.76 257.517 22.156 257.757 22.588C258.021 23.02 258.417 23.56 258.945 24.208C259.713 25.216 260.289 26.08 260.673 26.8C261.081 27.496 261.285 28.264 261.285 29.104C261.285 30.112 261.045 31.072 260.565 31.984C260.109 32.872 259.461 33.592 258.621 34.144C257.781 34.696 256.821 34.972 255.741 34.972Z" fill="white"/>
</svg>
