<svg width="900" height="403" viewBox="0 0 900 403" fill="none" xmlns="http://www.w3.org/2000/svg">
<rect width="900" height="403" fill="#FAFAFA"/>
<rect x="20.5" y="60.5" width="278" height="44" rx="3.5" fill="white" stroke="#DEDEDE"/>
<path d="M26.412 43.214V44.026H22.1V47.68H25.74V48.492H22.1V53H21.12V43.214H26.412ZM28.5143 43.914C28.3183 43.914 28.1503 43.844 28.0103 43.704C27.8703 43.564 27.8003 43.3913 27.8003 43.186C27.8003 42.9807 27.8703 42.8127 28.0103 42.682C28.1503 42.542 28.3183 42.472 28.5143 42.472C28.7103 42.472 28.8783 42.542 29.0183 42.682C29.1583 42.8127 29.2283 42.9807 29.2283 43.186C29.2283 43.3913 29.1583 43.564 29.0183 43.704C28.8783 43.844 28.7103 43.914 28.5143 43.914ZM29.0043 45.356V53H28.0243V45.356H29.0043ZM32.2035 46.714C32.4182 46.238 32.7448 45.8693 33.1835 45.608C33.6315 45.3467 34.1775 45.216 34.8215 45.216V46.238H34.5555C33.8462 46.238 33.2768 46.4293 32.8475 46.812C32.4182 47.1947 32.2035 47.834 32.2035 48.73V53H31.2235V45.356H32.2035V46.714ZM38.9278 53.112C38.0504 53.112 37.3318 52.9113 36.7718 52.51C36.2211 52.0993 35.9131 51.544 35.8478 50.844H36.8558C36.9024 51.2733 37.1031 51.6233 37.4578 51.894C37.8218 52.1553 38.3071 52.286 38.9138 52.286C39.4458 52.286 39.8611 52.16 40.1598 51.908C40.4678 51.656 40.6218 51.3433 40.6218 50.97C40.6218 50.7087 40.5378 50.494 40.3698 50.326C40.2018 50.158 39.9871 50.0273 39.7258 49.934C39.4738 49.8313 39.1284 49.724 38.6898 49.612C38.1204 49.4627 37.6584 49.3133 37.3038 49.164C36.9491 49.0147 36.6458 48.7953 36.3938 48.506C36.1511 48.2073 36.0298 47.8107 36.0298 47.316C36.0298 46.9427 36.1418 46.5973 36.3658 46.28C36.5898 45.9627 36.9071 45.7107 37.3178 45.524C37.7284 45.3373 38.1951 45.244 38.7178 45.244C39.5391 45.244 40.2018 45.454 40.7058 45.874C41.2098 46.2847 41.4804 46.854 41.5178 47.582H40.5378C40.5098 47.134 40.3324 46.7747 40.0058 46.504C39.6884 46.224 39.2498 46.084 38.6898 46.084C38.1951 46.084 37.7938 46.2007 37.4858 46.434C37.1778 46.6673 37.0238 46.9567 37.0238 47.302C37.0238 47.6007 37.1124 47.848 37.2898 48.044C37.4764 48.2307 37.7051 48.38 37.9758 48.492C38.2464 48.5947 38.6104 48.7113 39.0678 48.842C39.6184 48.9913 40.0571 49.136 40.3838 49.276C40.7104 49.416 40.9904 49.6213 41.2238 49.892C41.4571 50.1627 41.5784 50.522 41.5878 50.97C41.5878 51.3807 41.4758 51.7493 41.2518 52.076C41.0278 52.3933 40.7151 52.6453 40.3138 52.832C39.9124 53.0187 39.4504 53.112 38.9278 53.112ZM44.7065 46.182V50.928C44.7065 51.3947 44.7952 51.7167 44.9725 51.894C45.1498 52.0713 45.4625 52.16 45.9105 52.16H46.8065V53H45.7565C45.0658 53 44.5525 52.8413 44.2165 52.524C43.8805 52.1973 43.7125 51.6653 43.7125 50.928V46.182H42.6485V45.356H43.7125V43.438H44.7065V45.356H46.8065V46.182H44.7065ZM59.6425 53H58.6625L53.2445 44.768V53H52.2645V43.214H53.2445L58.6625 51.432V43.214H59.6425V53ZM61.4142 49.164C61.4142 48.38 61.5682 47.694 61.8762 47.106C62.1935 46.5087 62.6275 46.0513 63.1782 45.734C63.7382 45.4073 64.3682 45.244 65.0682 45.244C65.7962 45.244 66.4215 45.412 66.9442 45.748C67.4762 46.084 67.8589 46.5133 68.0922 47.036V45.356H69.0722V53H68.0922V51.306C67.8495 51.8287 67.4622 52.2627 66.9302 52.608C66.4075 52.944 65.7822 53.112 65.0542 53.112C64.3635 53.112 63.7382 52.9487 63.1782 52.622C62.6275 52.2953 62.1935 51.8333 61.8762 51.236C61.5682 50.6387 61.4142 49.948 61.4142 49.164ZM68.0922 49.178C68.0922 48.562 67.9662 48.0207 67.7142 47.554C67.4622 47.0873 67.1169 46.728 66.6782 46.476C66.2489 46.224 65.7729 46.098 65.2502 46.098C64.7089 46.098 64.2235 46.2193 63.7942 46.462C63.3649 46.7047 63.0242 47.0593 62.7722 47.526C62.5295 47.9833 62.4082 48.5293 62.4082 49.164C62.4082 49.7893 62.5295 50.34 62.7722 50.816C63.0242 51.2827 63.3649 51.642 63.7942 51.894C64.2235 52.1367 64.7089 52.258 65.2502 52.258C65.7729 52.258 66.2489 52.132 66.6782 51.88C67.1169 51.628 67.4622 51.2687 67.7142 50.802C67.9662 50.3353 68.0922 49.794 68.0922 49.178ZM80.4095 45.216C81.3055 45.216 82.0335 45.5007 82.5935 46.07C83.1628 46.63 83.4475 47.4467 83.4475 48.52V53H82.4815V48.632C82.4815 47.8013 82.2808 47.1667 81.8795 46.728C81.4781 46.2893 80.9321 46.07 80.2415 46.07C79.5228 46.07 78.9488 46.308 78.5195 46.784C78.0901 47.26 77.8755 47.9507 77.8755 48.856V53H76.9095V48.632C76.9095 47.8013 76.7088 47.1667 76.3075 46.728C75.9061 46.2893 75.3555 46.07 74.6555 46.07C73.9368 46.07 73.3628 46.308 72.9335 46.784C72.5041 47.26 72.2895 47.9507 72.2895 48.856V53H71.3095V45.356H72.2895V46.672C72.5321 46.196 72.8775 45.8367 73.3255 45.594C73.7735 45.342 74.2728 45.216 74.8235 45.216C75.4861 45.216 76.0648 45.3747 76.5595 45.692C77.0635 46.0093 77.4275 46.476 77.6515 47.092C77.8568 46.4853 78.2068 46.0233 78.7015 45.706C79.2055 45.3793 79.7748 45.216 80.4095 45.216ZM92.5399 48.786C92.5399 49.122 92.5306 49.3787 92.5119 49.556H86.1699C86.1979 50.1347 86.3379 50.6293 86.5899 51.04C86.8419 51.4507 87.1732 51.7633 87.5839 51.978C87.9946 52.1833 88.4426 52.286 88.9279 52.286C89.5626 52.286 90.0946 52.132 90.5239 51.824C90.9626 51.516 91.2519 51.1007 91.3919 50.578H92.4279C92.2412 51.3247 91.8399 51.936 91.2239 52.412C90.6172 52.8787 89.8519 53.112 88.9279 53.112C88.2092 53.112 87.5652 52.9533 86.9959 52.636C86.4266 52.3093 85.9786 51.852 85.6519 51.264C85.3346 50.6667 85.1759 49.9713 85.1759 49.178C85.1759 48.3847 85.3346 47.6893 85.6519 47.092C85.9692 46.4947 86.4126 46.0373 86.9819 45.72C87.5512 45.4027 88.1999 45.244 88.9279 45.244C89.6559 45.244 90.2906 45.4027 90.8319 45.72C91.3826 46.0373 91.8026 46.4667 92.0919 47.008C92.3906 47.54 92.5399 48.1327 92.5399 48.786ZM91.5459 48.758C91.5552 48.1887 91.4386 47.7033 91.1959 47.302C90.9626 46.9007 90.6406 46.5973 90.2299 46.392C89.8192 46.1867 89.3712 46.084 88.8859 46.084C88.1579 46.084 87.5372 46.3173 87.0239 46.784C86.5106 47.2507 86.2259 47.9087 86.1699 48.758H91.5459Z" fill="black"/>
<rect x="216.5" y="329.5" width="278" height="44" rx="3.5" fill="white" stroke="#DEDEDE"/>
<path d="M218.1 321.202H221.614V322H217.12V312.214H218.1V321.202ZM222.565 318.164C222.565 317.38 222.719 316.694 223.027 316.106C223.344 315.509 223.778 315.051 224.329 314.734C224.889 314.407 225.519 314.244 226.219 314.244C226.947 314.244 227.572 314.412 228.095 314.748C228.627 315.084 229.009 315.513 229.243 316.036V314.356H230.223V322H229.243V320.306C229 320.829 228.613 321.263 228.081 321.608C227.558 321.944 226.933 322.112 226.205 322.112C225.514 322.112 224.889 321.949 224.329 321.622C223.778 321.295 223.344 320.833 223.027 320.236C222.719 319.639 222.565 318.948 222.565 318.164ZM229.243 318.178C229.243 317.562 229.117 317.021 228.865 316.554C228.613 316.087 228.267 315.728 227.829 315.476C227.399 315.224 226.923 315.098 226.401 315.098C225.859 315.098 225.374 315.219 224.945 315.462C224.515 315.705 224.175 316.059 223.923 316.526C223.68 316.983 223.559 317.529 223.559 318.164C223.559 318.789 223.68 319.34 223.923 319.816C224.175 320.283 224.515 320.642 224.945 320.894C225.374 321.137 225.859 321.258 226.401 321.258C226.923 321.258 227.399 321.132 227.829 320.88C228.267 320.628 228.613 320.269 228.865 319.802C229.117 319.335 229.243 318.794 229.243 318.178ZM235.092 322.112C234.215 322.112 233.496 321.911 232.936 321.51C232.385 321.099 232.077 320.544 232.012 319.844H233.02C233.067 320.273 233.267 320.623 233.622 320.894C233.986 321.155 234.471 321.286 235.078 321.286C235.61 321.286 236.025 321.16 236.324 320.908C236.632 320.656 236.786 320.343 236.786 319.97C236.786 319.709 236.702 319.494 236.534 319.326C236.366 319.158 236.151 319.027 235.89 318.934C235.638 318.831 235.293 318.724 234.854 318.612C234.285 318.463 233.823 318.313 233.468 318.164C233.113 318.015 232.81 317.795 232.558 317.506C232.315 317.207 232.194 316.811 232.194 316.316C232.194 315.943 232.306 315.597 232.53 315.28C232.754 314.963 233.071 314.711 233.482 314.524C233.893 314.337 234.359 314.244 234.882 314.244C235.703 314.244 236.366 314.454 236.87 314.874C237.374 315.285 237.645 315.854 237.682 316.582H236.702C236.674 316.134 236.497 315.775 236.17 315.504C235.853 315.224 235.414 315.084 234.854 315.084C234.359 315.084 233.958 315.201 233.65 315.434C233.342 315.667 233.188 315.957 233.188 316.302C233.188 316.601 233.277 316.848 233.454 317.044C233.641 317.231 233.869 317.38 234.14 317.492C234.411 317.595 234.775 317.711 235.232 317.842C235.783 317.991 236.221 318.136 236.548 318.276C236.875 318.416 237.155 318.621 237.388 318.892C237.621 319.163 237.743 319.522 237.752 319.97C237.752 320.381 237.64 320.749 237.416 321.076C237.192 321.393 236.879 321.645 236.478 321.832C236.077 322.019 235.615 322.112 235.092 322.112ZM240.871 315.182V319.928C240.871 320.395 240.959 320.717 241.137 320.894C241.314 321.071 241.627 321.16 242.075 321.16H242.971V322H241.921C241.23 322 240.717 321.841 240.381 321.524C240.045 321.197 239.877 320.665 239.877 319.928V315.182H238.813V314.356H239.877V312.438H240.871V314.356H242.971V315.182H240.871ZM255.807 322H254.827L249.409 313.768V322H248.429V312.214H249.409L254.827 320.432V312.214H255.807V322ZM257.578 318.164C257.578 317.38 257.732 316.694 258.04 316.106C258.358 315.509 258.792 315.051 259.342 314.734C259.902 314.407 260.532 314.244 261.232 314.244C261.96 314.244 262.586 314.412 263.108 314.748C263.64 315.084 264.023 315.513 264.256 316.036V314.356H265.236V322H264.256V320.306C264.014 320.829 263.626 321.263 263.094 321.608C262.572 321.944 261.946 322.112 261.218 322.112C260.528 322.112 259.902 321.949 259.342 321.622C258.792 321.295 258.358 320.833 258.04 320.236C257.732 319.639 257.578 318.948 257.578 318.164ZM264.256 318.178C264.256 317.562 264.13 317.021 263.878 316.554C263.626 316.087 263.281 315.728 262.842 315.476C262.413 315.224 261.937 315.098 261.414 315.098C260.873 315.098 260.388 315.219 259.958 315.462C259.529 315.705 259.188 316.059 258.936 316.526C258.694 316.983 258.572 317.529 258.572 318.164C258.572 318.789 258.694 319.34 258.936 319.816C259.188 320.283 259.529 320.642 259.958 320.894C260.388 321.137 260.873 321.258 261.414 321.258C261.937 321.258 262.413 321.132 262.842 320.88C263.281 320.628 263.626 320.269 263.878 319.802C264.13 319.335 264.256 318.794 264.256 318.178ZM276.574 314.216C277.47 314.216 278.198 314.501 278.758 315.07C279.327 315.63 279.612 316.447 279.612 317.52V322H278.646V317.632C278.646 316.801 278.445 316.167 278.044 315.728C277.642 315.289 277.096 315.07 276.406 315.07C275.687 315.07 275.113 315.308 274.684 315.784C274.254 316.26 274.04 316.951 274.04 317.856V322H273.074V317.632C273.074 316.801 272.873 316.167 272.472 315.728C272.07 315.289 271.52 315.07 270.82 315.07C270.101 315.07 269.527 315.308 269.098 315.784C268.668 316.26 268.454 316.951 268.454 317.856V322H267.474V314.356H268.454V315.672C268.696 315.196 269.042 314.837 269.49 314.594C269.938 314.342 270.437 314.216 270.988 314.216C271.65 314.216 272.229 314.375 272.724 314.692C273.228 315.009 273.592 315.476 273.816 316.092C274.021 315.485 274.371 315.023 274.866 314.706C275.37 314.379 275.939 314.216 276.574 314.216ZM288.704 317.786C288.704 318.122 288.695 318.379 288.676 318.556H282.334C282.362 319.135 282.502 319.629 282.754 320.04C283.006 320.451 283.337 320.763 283.748 320.978C284.159 321.183 284.607 321.286 285.092 321.286C285.727 321.286 286.259 321.132 286.688 320.824C287.127 320.516 287.416 320.101 287.556 319.578H288.592C288.405 320.325 288.004 320.936 287.388 321.412C286.781 321.879 286.016 322.112 285.092 322.112C284.373 322.112 283.729 321.953 283.16 321.636C282.591 321.309 282.143 320.852 281.816 320.264C281.499 319.667 281.34 318.971 281.34 318.178C281.34 317.385 281.499 316.689 281.816 316.092C282.133 315.495 282.577 315.037 283.146 314.72C283.715 314.403 284.364 314.244 285.092 314.244C285.82 314.244 286.455 314.403 286.996 314.72C287.547 315.037 287.967 315.467 288.256 316.008C288.555 316.54 288.704 317.133 288.704 317.786ZM287.71 317.758C287.719 317.189 287.603 316.703 287.36 316.302C287.127 315.901 286.805 315.597 286.394 315.392C285.983 315.187 285.535 315.084 285.05 315.084C284.322 315.084 283.701 315.317 283.188 315.784C282.675 316.251 282.39 316.909 282.334 317.758H287.71Z" fill="black"/>
<rect x="584.5" y="60.5" width="278" height="44" rx="3.5" fill="white" stroke="#DEDEDE"/>
<path d="M586.1 44.012V47.666H589.81V48.478H586.1V52.188H590.23V53H585.12V43.2H590.23V44.012H586.1ZM601.261 45.216C602.157 45.216 602.885 45.5007 603.445 46.07C604.014 46.63 604.299 47.4467 604.299 48.52V53H603.333V48.632C603.333 47.8013 603.132 47.1667 602.731 46.728C602.33 46.2893 601.784 46.07 601.093 46.07C600.374 46.07 599.8 46.308 599.371 46.784C598.942 47.26 598.727 47.9507 598.727 48.856V53H597.761V48.632C597.761 47.8013 597.56 47.1667 597.159 46.728C596.758 46.2893 596.207 46.07 595.507 46.07C594.788 46.07 594.214 46.308 593.785 46.784C593.356 47.26 593.141 47.9507 593.141 48.856V53H592.161V45.356H593.141V46.672C593.384 46.196 593.729 45.8367 594.177 45.594C594.625 45.342 595.124 45.216 595.675 45.216C596.338 45.216 596.916 45.3747 597.411 45.692C597.915 46.0093 598.279 46.476 598.503 47.092C598.708 46.4853 599.058 46.0233 599.553 45.706C600.057 45.3793 600.626 45.216 601.261 45.216ZM606.027 49.164C606.027 48.38 606.181 47.694 606.489 47.106C606.807 46.5087 607.241 46.0513 607.791 45.734C608.351 45.4073 608.981 45.244 609.681 45.244C610.409 45.244 611.035 45.412 611.557 45.748C612.089 46.084 612.472 46.5133 612.705 47.036V45.356H613.685V53H612.705V51.306C612.463 51.8287 612.075 52.2627 611.543 52.608C611.021 52.944 610.395 53.112 609.667 53.112C608.977 53.112 608.351 52.9487 607.791 52.622C607.241 52.2953 606.807 51.8333 606.489 51.236C606.181 50.6387 606.027 49.948 606.027 49.164ZM612.705 49.178C612.705 48.562 612.579 48.0207 612.327 47.554C612.075 47.0873 611.73 46.728 611.291 46.476C610.862 46.224 610.386 46.098 609.863 46.098C609.322 46.098 608.837 46.2193 608.407 46.462C607.978 46.7047 607.637 47.0593 607.385 47.526C607.143 47.9833 607.021 48.5293 607.021 49.164C607.021 49.7893 607.143 50.34 607.385 50.816C607.637 51.2827 607.978 51.642 608.407 51.894C608.837 52.1367 609.322 52.258 609.863 52.258C610.386 52.258 610.862 52.132 611.291 51.88C611.73 51.628 612.075 51.2687 612.327 50.802C612.579 50.3353 612.705 49.794 612.705 49.178ZM616.413 43.914C616.217 43.914 616.049 43.844 615.909 43.704C615.769 43.564 615.699 43.3913 615.699 43.186C615.699 42.9807 615.769 42.8127 615.909 42.682C616.049 42.542 616.217 42.472 616.413 42.472C616.609 42.472 616.777 42.542 616.917 42.682C617.057 42.8127 617.127 42.9807 617.127 43.186C617.127 43.3913 617.057 43.564 616.917 43.704C616.777 43.844 616.609 43.914 616.413 43.914ZM616.903 45.356V53H615.923V45.356H616.903ZM620.102 42.64V53H619.122V42.64H620.102Z" fill="black"/>
<g filter="url(#filter0_d)">
<rect x="182" y="183" width="147" height="53" rx="12" fill="#61B2FD"/>
</g>
<path d="M222.54 216.14C220.847 216.14 219.447 215.747 218.34 214.96C217.247 214.16 216.653 212.993 216.56 211.46H221.28C221.347 212.273 221.707 212.68 222.36 212.68C222.6 212.68 222.8 212.627 222.96 212.52C223.133 212.4 223.22 212.22 223.22 211.98C223.22 211.647 223.04 211.38 222.68 211.18C222.32 210.967 221.76 210.727 221 210.46C220.093 210.14 219.34 209.827 218.74 209.52C218.153 209.213 217.647 208.767 217.22 208.18C216.793 207.593 216.587 206.84 216.6 205.92C216.6 205 216.833 204.22 217.3 203.58C217.78 202.927 218.427 202.433 219.24 202.1C220.067 201.767 220.993 201.6 222.02 201.6C223.753 201.6 225.127 202 226.14 202.8C227.167 203.6 227.707 204.727 227.76 206.18H222.98C222.967 205.78 222.867 205.493 222.68 205.32C222.493 205.147 222.267 205.06 222 205.06C221.813 205.06 221.66 205.127 221.54 205.26C221.42 205.38 221.36 205.553 221.36 205.78C221.36 206.1 221.533 206.367 221.88 206.58C222.24 206.78 222.807 207.027 223.58 207.32C224.473 207.653 225.207 207.973 225.78 208.28C226.367 208.587 226.873 209.013 227.3 209.56C227.727 210.107 227.94 210.793 227.94 211.62C227.94 212.487 227.727 213.267 227.3 213.96C226.873 214.64 226.253 215.173 225.44 215.56C224.627 215.947 223.66 216.14 222.54 216.14ZM233.84 201.84V209.82C233.84 210.473 233.98 210.993 234.26 211.38C234.553 211.753 235.02 211.94 235.66 211.94C236.3 211.94 236.773 211.753 237.08 211.38C237.387 210.993 237.54 210.473 237.54 209.82V201.84H241.96V209.82C241.96 211.167 241.68 212.32 241.12 213.28C240.56 214.227 239.793 214.94 238.82 215.42C237.847 215.9 236.76 216.14 235.56 216.14C234.36 216.14 233.293 215.9 232.36 215.42C231.44 214.94 230.72 214.227 230.2 213.28C229.68 212.333 229.42 211.18 229.42 209.82V201.84H233.84ZM253.355 208.74C254.208 208.94 254.868 209.353 255.335 209.98C255.815 210.593 256.055 211.307 256.055 212.12C256.055 213.36 255.642 214.32 254.815 215C254.002 215.667 252.828 216 251.295 216H243.875V201.84H251.095C252.535 201.84 253.668 202.153 254.495 202.78C255.322 203.407 255.735 204.32 255.735 205.52C255.735 206.347 255.515 207.047 255.075 207.62C254.648 208.18 254.075 208.553 253.355 208.74ZM248.315 207.36H250.035C250.435 207.36 250.728 207.28 250.915 207.12C251.115 206.96 251.215 206.713 251.215 206.38C251.215 206.033 251.115 205.78 250.915 205.62C250.728 205.447 250.435 205.36 250.035 205.36H248.315V207.36ZM250.335 212.44C250.735 212.44 251.028 212.367 251.215 212.22C251.415 212.06 251.515 211.807 251.515 211.46C251.515 210.78 251.122 210.44 250.335 210.44H248.315V212.44H250.335ZM274.567 201.84V216H270.147V208.94L267.967 216H264.167L261.987 208.94V216H257.547V201.84H262.987L266.107 210.34L269.147 201.84H274.567ZM281.01 201.84V216H276.57V201.84H281.01ZM294.136 201.84V205.36H290.376V216H285.936V205.36H282.216V201.84H294.136Z" fill="white"/>
<g filter="url(#filter1_d)">
<rect x="716" y="321" width="147" height="53" rx="12" fill="#61B2FD"/>
</g>
<path d="M779.68 345.68C779.507 345.4 779.26 345.187 778.94 345.04C778.62 344.88 778.233 344.8 777.78 344.8C776.927 344.8 776.267 345.08 775.8 345.64C775.333 346.187 775.1 346.94 775.1 347.9C775.1 349.007 775.36 349.833 775.88 350.38C776.4 350.927 777.2 351.2 778.28 351.2C779.307 351.2 780.133 350.787 780.76 349.96H777.22V346.82H784.44V351.26C783.827 352.313 782.98 353.22 781.9 353.98C780.82 354.727 779.453 355.1 777.8 355.1C776.333 355.1 775.053 354.8 773.96 354.2C772.88 353.587 772.047 352.733 771.46 351.64C770.887 350.547 770.6 349.3 770.6 347.9C770.6 346.5 770.887 345.253 771.46 344.16C772.047 343.067 772.88 342.22 773.96 341.62C775.04 341.007 776.307 340.7 777.76 340.7C779.613 340.7 781.12 341.147 782.28 342.04C783.453 342.933 784.147 344.147 784.36 345.68H779.68ZM792.939 355.14C791.606 355.14 790.379 354.827 789.259 354.2C788.152 353.573 787.272 352.707 786.619 351.6C785.966 350.493 785.639 349.247 785.639 347.86C785.639 346.473 785.966 345.227 786.619 344.12C787.272 343.013 788.152 342.153 789.259 341.54C790.379 340.913 791.606 340.6 792.939 340.6C794.272 340.6 795.492 340.913 796.599 341.54C797.706 342.153 798.579 343.013 799.219 344.12C799.872 345.227 800.199 346.473 800.199 347.86C800.199 349.247 799.872 350.493 799.219 351.6C798.579 352.707 797.699 353.573 796.579 354.2C795.472 354.827 794.259 355.14 792.939 355.14ZM792.939 351C793.819 351 794.499 350.72 794.979 350.16C795.459 349.587 795.699 348.82 795.699 347.86C795.699 346.887 795.459 346.12 794.979 345.56C794.499 344.987 793.819 344.7 792.939 344.7C792.046 344.7 791.359 344.987 790.879 345.56C790.399 346.12 790.159 346.887 790.159 347.86C790.159 348.82 790.399 349.587 790.879 350.16C791.359 350.72 792.046 351 792.939 351ZM807.781 339.9L807.261 349.38H803.461L802.941 339.9H807.781ZM805.361 355.16C804.587 355.16 803.967 354.953 803.501 354.54C803.034 354.127 802.801 353.607 802.801 352.98C802.801 352.34 803.034 351.813 803.501 351.4C803.967 350.973 804.587 350.76 805.361 350.76C806.121 350.76 806.734 350.973 807.201 351.4C807.667 351.813 807.901 352.34 807.901 352.98C807.901 353.607 807.667 354.127 807.201 354.54C806.734 354.953 806.121 355.16 805.361 355.16Z" fill="white"/>
<circle cx="576" cy="210" r="15" fill="#61B2FD"/>
<circle cx="628" cy="210" r="15" fill="#61B2FD"/>
<circle cx="680" cy="210" r="15" fill="#61B2FD"/>
<circle cx="576" cy="210" r="8" fill="white"/>
<circle cx="628" cy="210" r="8" fill="white"/>
<defs>
<filter id="filter0_d" x="178" y="183" width="155" height="61" filterUnits="userSpaceOnUse" color-interpolation-filters="sRGB">
<feFlood flood-opacity="0" result="BackgroundImageFix"/>
<feColorMatrix in="SourceAlpha" type="matrix" values="0 0 0 0 0 0 0 0 0 0 0 0 0 0 0 0 0 0 127 0"/>
<feOffset dy="4"/>
<feGaussianBlur stdDeviation="2"/>
<feColorMatrix type="matrix" values="0 0 0 0 0 0 0 0 0 0 0 0 0 0 0 0 0 0 0.25 0"/>
<feBlend mode="normal" in2="BackgroundImageFix" result="effect1_dropShadow"/>
<feBlend mode="normal" in="SourceGraphic" in2="effect1_dropShadow" result="shape"/>
</filter>
<filter id="filter1_d" x="712" y="321" width="155" height="61" filterUnits="userSpaceOnUse" color-interpolation-filters="sRGB">
<feFlood flood-opacity="0" result="BackgroundImageFix"/>
<feColorMatrix in="SourceAlpha" type="matrix" values="0 0 0 0 0 0 0 0 0 0 0 0 0 0 0 0 0 0 127 0"/>
<feOffset dy="4"/>
<feGaussianBlur stdDeviation="2"/>
<feColorMatrix type="matrix" values="0 0 0 0 0 0 0 0 0 0 0 0 0 0 0 0 0 0 0.25 0"/>
<feBlend mode="normal" in2="BackgroundImageFix" result="effect1_dropShadow"/>
<feBlend mode="normal" in="SourceGraphic" in2="effect1_dropShadow" result="shape"/>
</filter>
</defs>
</svg>
