<svg width="286" height="403" viewBox="0 0 286 403" fill="none" xmlns="http://www.w3.org/2000/svg">
<rect width="286" height="403" fill="#FAFAFA"/>
<rect x="3.5" y="55.5" width="278" height="44" rx="3.5" fill="white" stroke="#DEDEDE"/>
<path d="M9.412 38.214V39.026H5.1V42.68H8.74V43.492H5.1V48H4.12V38.214H9.412ZM11.5143 38.914C11.3183 38.914 11.1503 38.844 11.0103 38.704C10.8703 38.564 10.8003 38.3913 10.8003 38.186C10.8003 37.9807 10.8703 37.8127 11.0103 37.682C11.1503 37.542 11.3183 37.472 11.5143 37.472C11.7103 37.472 11.8783 37.542 12.0183 37.682C12.1583 37.8127 12.2283 37.9807 12.2283 38.186C12.2283 38.3913 12.1583 38.564 12.0183 38.704C11.8783 38.844 11.7103 38.914 11.5143 38.914ZM12.0043 40.356V48H11.0243V40.356H12.0043ZM15.2035 41.714C15.4182 41.238 15.7448 40.8693 16.1835 40.608C16.6315 40.3467 17.1775 40.216 17.8215 40.216V41.238H17.5555C16.8462 41.238 16.2768 41.4293 15.8475 41.812C15.4182 42.1947 15.2035 42.834 15.2035 43.73V48H14.2235V40.356H15.2035V41.714ZM21.9278 48.112C21.0504 48.112 20.3318 47.9113 19.7718 47.51C19.2211 47.0993 18.9131 46.544 18.8478 45.844H19.8558C19.9024 46.2733 20.1031 46.6233 20.4578 46.894C20.8218 47.1553 21.3071 47.286 21.9138 47.286C22.4458 47.286 22.8611 47.16 23.1598 46.908C23.4678 46.656 23.6218 46.3433 23.6218 45.97C23.6218 45.7087 23.5378 45.494 23.3698 45.326C23.2018 45.158 22.9871 45.0273 22.7258 44.934C22.4738 44.8313 22.1284 44.724 21.6898 44.612C21.1204 44.4627 20.6584 44.3133 20.3038 44.164C19.9491 44.0147 19.6458 43.7953 19.3938 43.506C19.1511 43.2073 19.0298 42.8107 19.0298 42.316C19.0298 41.9427 19.1418 41.5973 19.3658 41.28C19.5898 40.9627 19.9071 40.7107 20.3178 40.524C20.7284 40.3373 21.1951 40.244 21.7178 40.244C22.5391 40.244 23.2018 40.454 23.7058 40.874C24.2098 41.2847 24.4804 41.854 24.5178 42.582H23.5378C23.5098 42.134 23.3324 41.7747 23.0058 41.504C22.6884 41.224 22.2498 41.084 21.6898 41.084C21.1951 41.084 20.7938 41.2007 20.4858 41.434C20.1778 41.6673 20.0238 41.9567 20.0238 42.302C20.0238 42.6007 20.1124 42.848 20.2898 43.044C20.4764 43.2307 20.7051 43.38 20.9758 43.492C21.2464 43.5947 21.6104 43.7113 22.0678 43.842C22.6184 43.9913 23.0571 44.136 23.3838 44.276C23.7104 44.416 23.9904 44.6213 24.2238 44.892C24.4571 45.1627 24.5784 45.522 24.5878 45.97C24.5878 46.3807 24.4758 46.7493 24.2518 47.076C24.0278 47.3933 23.7151 47.6453 23.3138 47.832C22.9124 48.0187 22.4504 48.112 21.9278 48.112ZM27.7065 41.182V45.928C27.7065 46.3947 27.7952 46.7167 27.9725 46.894C28.1498 47.0713 28.4625 47.16 28.9105 47.16H29.8065V48H28.7565C28.0658 48 27.5525 47.8413 27.2165 47.524C26.8805 47.1973 26.7125 46.6653 26.7125 45.928V41.182H25.6485V40.356H26.7125V38.438H27.7065V40.356H29.8065V41.182H27.7065ZM42.6425 48H41.6625L36.2445 39.768V48H35.2645V38.214H36.2445L41.6625 46.432V38.214H42.6425V48ZM44.4142 44.164C44.4142 43.38 44.5682 42.694 44.8762 42.106C45.1935 41.5087 45.6275 41.0513 46.1782 40.734C46.7382 40.4073 47.3682 40.244 48.0682 40.244C48.7962 40.244 49.4215 40.412 49.9442 40.748C50.4762 41.084 50.8589 41.5133 51.0922 42.036V40.356H52.0722V48H51.0922V46.306C50.8495 46.8287 50.4622 47.2627 49.9302 47.608C49.4075 47.944 48.7822 48.112 48.0542 48.112C47.3635 48.112 46.7382 47.9487 46.1782 47.622C45.6275 47.2953 45.1935 46.8333 44.8762 46.236C44.5682 45.6387 44.4142 44.948 44.4142 44.164ZM51.0922 44.178C51.0922 43.562 50.9662 43.0207 50.7142 42.554C50.4622 42.0873 50.1169 41.728 49.6782 41.476C49.2489 41.224 48.7729 41.098 48.2502 41.098C47.7089 41.098 47.2235 41.2193 46.7942 41.462C46.3649 41.7047 46.0242 42.0593 45.7722 42.526C45.5295 42.9833 45.4082 43.5293 45.4082 44.164C45.4082 44.7893 45.5295 45.34 45.7722 45.816C46.0242 46.2827 46.3649 46.642 46.7942 46.894C47.2235 47.1367 47.7089 47.258 48.2502 47.258C48.7729 47.258 49.2489 47.132 49.6782 46.88C50.1169 46.628 50.4622 46.2687 50.7142 45.802C50.9662 45.3353 51.0922 44.794 51.0922 44.178ZM63.4095 40.216C64.3055 40.216 65.0335 40.5007 65.5935 41.07C66.1628 41.63 66.4475 42.4467 66.4475 43.52V48H65.4815V43.632C65.4815 42.8013 65.2808 42.1667 64.8795 41.728C64.4781 41.2893 63.9321 41.07 63.2415 41.07C62.5228 41.07 61.9488 41.308 61.5195 41.784C61.0901 42.26 60.8755 42.9507 60.8755 43.856V48H59.9095V43.632C59.9095 42.8013 59.7088 42.1667 59.3075 41.728C58.9061 41.2893 58.3555 41.07 57.6555 41.07C56.9368 41.07 56.3628 41.308 55.9335 41.784C55.5041 42.26 55.2895 42.9507 55.2895 43.856V48H54.3095V40.356H55.2895V41.672C55.5321 41.196 55.8775 40.8367 56.3255 40.594C56.7735 40.342 57.2728 40.216 57.8235 40.216C58.4861 40.216 59.0648 40.3747 59.5595 40.692C60.0635 41.0093 60.4275 41.476 60.6515 42.092C60.8568 41.4853 61.2068 41.0233 61.7015 40.706C62.2055 40.3793 62.7748 40.216 63.4095 40.216ZM75.5399 43.786C75.5399 44.122 75.5306 44.3787 75.5119 44.556H69.1699C69.1979 45.1347 69.3379 45.6293 69.5899 46.04C69.8419 46.4507 70.1732 46.7633 70.5839 46.978C70.9946 47.1833 71.4426 47.286 71.9279 47.286C72.5626 47.286 73.0946 47.132 73.5239 46.824C73.9626 46.516 74.2519 46.1007 74.3919 45.578H75.4279C75.2412 46.3247 74.8399 46.936 74.2239 47.412C73.6172 47.8787 72.8519 48.112 71.9279 48.112C71.2092 48.112 70.5652 47.9533 69.9959 47.636C69.4266 47.3093 68.9786 46.852 68.6519 46.264C68.3346 45.6667 68.1759 44.9713 68.1759 44.178C68.1759 43.3847 68.3346 42.6893 68.6519 42.092C68.9692 41.4947 69.4126 41.0373 69.9819 40.72C70.5512 40.4027 71.1999 40.244 71.9279 40.244C72.6559 40.244 73.2906 40.4027 73.8319 40.72C74.3826 41.0373 74.8026 41.4667 75.0919 42.008C75.3906 42.54 75.5399 43.1327 75.5399 43.786ZM74.5459 43.758C74.5552 43.1887 74.4386 42.7033 74.1959 42.302C73.9626 41.9007 73.6406 41.5973 73.2299 41.392C72.8192 41.1867 72.3712 41.084 71.8859 41.084C71.1579 41.084 70.5372 41.3173 70.0239 41.784C69.5106 42.2507 69.2259 42.9087 69.1699 43.758H74.5459Z" fill="black"/>
<g filter="url(#filter0_d)">
<rect x="70" y="310" width="147" height="53" rx="12" fill="#61B2FD"/>
</g>
<path d="M133.68 334.68C133.507 334.4 133.26 334.187 132.94 334.04C132.62 333.88 132.233 333.8 131.78 333.8C130.927 333.8 130.267 334.08 129.8 334.64C129.333 335.187 129.1 335.94 129.1 336.9C129.1 338.007 129.36 338.833 129.88 339.38C130.4 339.927 131.2 340.2 132.28 340.2C133.307 340.2 134.133 339.787 134.76 338.96H131.22V335.82H138.44V340.26C137.827 341.313 136.98 342.22 135.9 342.98C134.82 343.727 133.453 344.1 131.8 344.1C130.333 344.1 129.053 343.8 127.96 343.2C126.88 342.587 126.047 341.733 125.46 340.64C124.887 339.547 124.6 338.3 124.6 336.9C124.6 335.5 124.887 334.253 125.46 333.16C126.047 332.067 126.88 331.22 127.96 330.62C129.04 330.007 130.307 329.7 131.76 329.7C133.613 329.7 135.12 330.147 136.28 331.04C137.453 331.933 138.147 333.147 138.36 334.68H133.68ZM146.939 344.14C145.606 344.14 144.379 343.827 143.259 343.2C142.152 342.573 141.272 341.707 140.619 340.6C139.966 339.493 139.639 338.247 139.639 336.86C139.639 335.473 139.966 334.227 140.619 333.12C141.272 332.013 142.152 331.153 143.259 330.54C144.379 329.913 145.606 329.6 146.939 329.6C148.272 329.6 149.492 329.913 150.599 330.54C151.706 331.153 152.579 332.013 153.219 333.12C153.872 334.227 154.199 335.473 154.199 336.86C154.199 338.247 153.872 339.493 153.219 340.6C152.579 341.707 151.699 342.573 150.579 343.2C149.472 343.827 148.259 344.14 146.939 344.14ZM146.939 340C147.819 340 148.499 339.72 148.979 339.16C149.459 338.587 149.699 337.82 149.699 336.86C149.699 335.887 149.459 335.12 148.979 334.56C148.499 333.987 147.819 333.7 146.939 333.7C146.046 333.7 145.359 333.987 144.879 334.56C144.399 335.12 144.159 335.887 144.159 336.86C144.159 337.82 144.399 338.587 144.879 339.16C145.359 339.72 146.046 340 146.939 340ZM161.781 328.9L161.261 338.38H157.461L156.941 328.9H161.781ZM159.361 344.16C158.587 344.16 157.967 343.953 157.501 343.54C157.034 343.127 156.801 342.607 156.801 341.98C156.801 341.34 157.034 340.813 157.501 340.4C157.967 339.973 158.587 339.76 159.361 339.76C160.121 339.76 160.734 339.973 161.201 340.4C161.667 340.813 161.901 341.34 161.901 341.98C161.901 342.607 161.667 343.127 161.201 343.54C160.734 343.953 160.121 344.16 159.361 344.16Z" fill="white"/>
<circle cx="91" cy="203" r="15" fill="#61B2FD"/>
<circle cx="143" cy="203" r="15" fill="#61B2FD"/>
<circle cx="195" cy="203" r="15" fill="#61B2FD"/>
<circle cx="91" cy="203" r="8" fill="white"/>
<circle cx="143" cy="203" r="8" fill="white"/>
<defs>
<filter id="filter0_d" x="66" y="310" width="155" height="61" filterUnits="userSpaceOnUse" color-interpolation-filters="sRGB">
<feFlood flood-opacity="0" result="BackgroundImageFix"/>
<feColorMatrix in="SourceAlpha" type="matrix" values="0 0 0 0 0 0 0 0 0 0 0 0 0 0 0 0 0 0 127 0"/>
<feOffset dy="4"/>
<feGaussianBlur stdDeviation="2"/>
<feColorMatrix type="matrix" values="0 0 0 0 0 0 0 0 0 0 0 0 0 0 0 0 0 0 0.25 0"/>
<feBlend mode="normal" in2="BackgroundImageFix" result="effect1_dropShadow"/>
<feBlend mode="normal" in="SourceGraphic" in2="effect1_dropShadow" result="shape"/>
</filter>
</defs>
</svg>
